<svg id="Группа_4" data-name="Группа 4" xmlns="http://www.w3.org/2000/svg" width="41" height="41" viewBox="0 0 41 41">
  <defs>
    <style>
      .cls-1 {
        fill: #4e73db;
        stroke: #fff;
        stroke-linejoin: round;
        stroke-width: 4px;
      }

      .cls-2 {
        fill: #fff;
        fill-rule: evenodd;
      }
    </style>
  </defs>
  <circle class="cls-1" cx="20.955" cy="20.97" r="16.015"/>
  <path class="cls-2" d="M1131.44,1507.53a0.167,0.167,0,0,0-.18-0.01l-15.68,7.95a0.156,0.156,0,0,0-.08.15,0.15,0.15,0,0,0,.11.14l4.96,1.57a0.2,0.2,0,0,0,.16-0.04l7.54-6.39-5.79,6.8a0.14,0.14,0,0,0-.03.15,0.157,0.157,0,0,0,.1.11l5.83,1.76h0.04a0.188,0.188,0,0,0,.08-0.02,0.159,0.159,0,0,0,.08-0.1l2.91-11.9A0.177,0.177,0,0,0,1131.44,1507.53Zm-7.18,12.16-1.61-.49a0.206,0.206,0,0,0-.15.03,0.161,0.161,0,0,0-.06.13v3.01a0.159,0.159,0,0,0,.12.15,0.06,0.06,0,0,0,.04.01,0.172,0.172,0,0,0,.14-0.08l1.61-2.52a0.169,0.169,0,0,0,.01-0.14A0.165,0.165,0,0,0,1124.26,1519.69Z" transform="translate(-1104 -1493)"/>
</svg>
